<svg xmlns="http://www.w3.org/2000/svg" width="20" height="20" viewBox="0 0 20 20"><defs><style>.a{fill:none;}.b,.c{stroke:none;}.c{fill:#354a73;}</style></defs><g class="a"><path class="b" d="M8,20V12.5H0V8H8V0h4.5V8H20v4.5H12.5V20Z"/><path class="c" d="M 11.50010013580322 18.99979972839355 L 11.50010013580322 12.50010013580322 L 11.50010013580322 11.50010013580322 L 12.50010013580322 11.50010013580322 L 18.99979972839355 11.50010013580322 L 18.99979972839355 9.000100135803223 L 12.50010013580322 9.000100135803223 L 11.50010013580322 9.000100135803223 L 11.50010013580322 8.000100135803223 L 11.50010013580322 0.9999998807907104 L 9.000100135803223 0.9999998807907104 L 9.000100135803223 8.000100135803223 L 9.000100135803223 9.000100135803223 L 8.000100135803223 9.000100135803223 L 0.9999998807907104 9.000100135803223 L 0.9999998807907104 11.50010013580322 L 8.000100135803223 11.50010013580322 L 9.000100135803223 11.50010013580322 L 9.000100135803223 12.50010013580322 L 9.000100135803223 18.99979972839355 L 11.50010013580322 18.99979972839355 M 12.50010013580322 19.99979972839355 L 8.000100135803223 19.99979972839355 L 8.000100135803223 12.50010013580322 L -1.358032193365943e-07 12.50010013580322 L -1.358032193365943e-07 8.000100135803223 L 8.000100135803223 8.000100135803223 L 8.000100135803223 -1.358032193365943e-07 L 12.50010013580322 -1.358032193365943e-07 L 12.50010013580322 8.000100135803223 L 19.99979972839355 8.000100135803223 L 19.99979972839355 12.50010013580322 L 12.50010013580322 12.50010013580322 L 12.50010013580322 19.99979972839355 Z"/></g></svg>