<svg xmlns="http://www.w3.org/2000/svg" width="185.959" height="43" viewBox="0 0 185.959 43">
  <g id="Group_40" data-name="Group 40" transform="translate(-16 -11)">
    <g id="logo" transform="translate(16 11)">
      <g id="Group_4" data-name="Group 4">
        <path id="Path_2" data-name="Path 2" d="M7,11.189l18.618,8.828,7.43-3.147V0Z" transform="translate(-6.301)" fill="#f58220"/>
        <path id="Path_26" data-name="Path 26" d="M33.05,11.188,14.43,20.017,7,16.87V0Z" transform="translate(21.252)" fill="#f58220"/>
        <path id="Path_3" data-name="Path 3" d="M27.441,23.44,6.2,13.3V32.53Z" transform="translate(-6.2 -1.048)" fill="#f58220"/>
        <path id="Path_25" data-name="Path 25" d="M6.2,23.44,27.442,13.3V32.53Z" transform="translate(27.558 -1.048)" fill="#f58220"/>
        <path id="Path_4" data-name="Path 4" d="M9.9,57.427V38.2H0V57.427Z" transform="translate(22.556 -14.428)" fill="#1657ab"/>
        <path id="Path_5" data-name="Path 5" d="M6.2,34.978,27.441,45.03V25.8Z" transform="translate(-6.2 -2.03)" fill="#1657ab"/>
        <path id="Path_24" data-name="Path 24" d="M27.442,34.978,6.2,45.03V25.8Z" transform="translate(27.558 -2.03)" fill="#1657ab"/>
      </g>
    </g>
    <path id="Integration" d="M1.463,0H3.192V-13.243H1.463ZM14.82-13.262V-2.736L7.866-13.262H6.137V0H7.866V-10.545L14.82,0h1.729V-13.262Zm3.857,1.425h3.629V0h1.729V-11.837h3.61v-1.406H18.677ZM36.9-13.262H29.773V0H36.9V-1.425H31.5v-4.56h4.826V-7.41H31.5v-4.427h5.4Zm8.626-.133a6.532,6.532,0,0,0-6.65,6.764A6.516,6.516,0,0,0,45.524.114a6.423,6.423,0,0,0,6.5-5.928v-1.33H44.9v1.406h5.282a4.465,4.465,0,0,1-4.655,4.294c-2.793,0-4.883-2.014-4.883-5.187,0-3.192,2.09-5.206,4.883-5.206A4.225,4.225,0,0,1,49.552-9.4h2.071A6.261,6.261,0,0,0,45.524-13.395ZM61.389-9.348c0,1.482-.855,2.546-2.812,2.546H56.031v-5.016h2.546C60.553-11.818,61.389-10.849,61.389-9.348ZM54.3-13.243V0h1.729V-5.415h2.09L61.275,0h2.071L60.021-5.548a3.734,3.734,0,0,0,3.154-3.8c0-2.166-1.482-3.895-4.6-3.895ZM74.746,0H76.57L71.8-13.167H69.806L65.018,0h1.824l1.064-2.945h5.776ZM73.188-4.351H68.4l2.394-6.688Zm4.655-7.486h3.629V0H83.2V-11.837h3.61v-1.406H77.843ZM88.939,0h1.729V-13.243H88.939Zm17.328-6.631a6.521,6.521,0,0,0-6.65-6.764,6.532,6.532,0,0,0-6.65,6.764A6.532,6.532,0,0,0,99.617.133,6.521,6.521,0,0,0,106.267-6.631Zm-11.533,0c0-3.249,2.09-5.263,4.883-5.263S104.5-9.88,104.5-6.631c0,3.23-2.09,5.263-4.883,5.263S94.734-3.4,94.734-6.631Zm22.5-6.631V-2.736l-6.954-10.526h-1.729V0h1.729V-10.545L117.23,0h1.729V-13.262Z" transform="translate(83 36)" fill="#f58220"/>
    <path id="System" d="M5.44-1.97c0-2.54-3.68-1.56-3.68-3.13,0-.67.51-.99,1.17-.97a1.087,1.087,0,0,1,1.17.92H5.36A2.119,2.119,0,0,0,2.99-7.04C1.57-7.04.6-6.28.6-5.06.6-2.5,4.29-3.59,4.29-1.91c0,.59-.45,1.02-1.25,1.02A1.115,1.115,0,0,1,1.8-1.92H.58C.58-.69,1.65.07,3.04.07A2.159,2.159,0,0,0,5.44-1.97Zm19.38-.55V0h1.14V-2.52l2.3-4.43H27L25.39-3.54,23.78-6.95H22.51Zm25.35.55c0-2.54-3.68-1.56-3.68-3.13,0-.67.51-.99,1.17-.97a1.087,1.087,0,0,1,1.17.92h1.26a2.119,2.119,0,0,0-2.37-1.89c-1.42,0-2.39.76-2.39,1.98,0,2.56,3.69,1.47,3.69,3.15,0,.59-.45,1.02-1.25,1.02a1.115,1.115,0,0,1-1.24-1.03H45.31c0,1.23,1.07,1.99,2.46,1.99A2.159,2.159,0,0,0,50.17-1.97ZM67.48-6.02h1.86V0h1.14V-6.02h1.85v-.93H67.48Zm26.16-.94H89.8V0h3.84V-.93h-2.7V-3.06h2.4v-.93h-2.4V-6.03h2.7ZM111.36,0h1.14V-4.76L114.63,0h.79l2.12-4.76V0h1.14V-6.95h-1.22L115.03-1.5l-2.44-5.45h-1.23Z" transform="translate(83 51)" fill="#1657ab"/>
  </g>
</svg>
